HIERARCHY
ROOT Hips
{
  OFFSET 5.84602e-005 68.8428 3.50346
  CHANNELS 6 Xposition Yposition Zposition Zrotation Xrotation Yrotation
  JOINT Spine
  {
    OFFSET 0 8.597 -4.6522
    CHANNELS 3 Zrotation Xrotation Yrotation
    JOINT Spine1
    {
      OFFSET 0 7.8454 0.4098
      CHANNELS 3 Zrotation Xrotation Yrotation
      JOINT Spine2
      {
        OFFSET 0 9.7078 -2.1609
        CHANNELS 3 Zrotation Xrotation Yrotation
        JOINT Neck
        {
          OFFSET 0 21.8761 -0.4549
          CHANNELS 3 Zrotation Xrotation Yrotation
          JOINT Head
          {
            OFFSET 0 12.3537 3.3602
            CHANNELS 3 Zrotation Xrotation Yrotation
            End Site
            {
              OFFSET 0.0001 18.9506 0.5657
            }
          }
        }
        JOINT LeftShoulder
        {
          OFFSET 2.2086 21.1115 7.2329
          CHANNELS 3 Zrotation Xrotation Yrotation
          JOINT LeftArm
          {
            OFFSET 13.1193 3.0282 -4.8998
            CHANNELS 3 Zrotation Xrotation Yrotation
            JOINT LeftForeArm
            {
              OFFSET 27.4081 -0.0973053 -0.2375
              CHANNELS 3 Zrotation Xrotation Yrotation
              JOINT LeftHand
              {
                OFFSET 22.8641 0.0662994 -0.1369
                CHANNELS 3 Zrotation Xrotation Yrotation
                JOINT LeftHandIndex1
                {
                  OFFSET 8.8614 0.775009 2.4612
                  CHANNELS 3 Zrotation Xrotation Yrotation
                  JOINT LeftHandIndex2
                  {
                    OFFSET 3.3146 -0.808304 0.5841
                    CHANNELS 3 Zrotation Xrotation Yrotation
                    JOINT LeftHandIndex3
                    {
                      OFFSET 2.2628 -0.552002 0.3989
                      CHANNELS 3 Zrotation Xrotation Yrotation
                      End Site
                      {
                        OFFSET 1.6102 -0.4807 0.2612
                      }
                    }
                  }
                }
                JOINT LeftHandMiddle1
                {
                  OFFSET 8.9937 0.895004 0.2143
                  CHANNELS 3 Zrotation Xrotation Yrotation
                  JOINT LeftHandMiddle2
                  {
                    OFFSET 4.0984 0.0113983 -0.0242
                    CHANNELS 3 Zrotation Xrotation Yrotation
                    JOINT LeftHandMiddle3
                    {
                      OFFSET 2.2716 0.00689697 -0.0138001
                      CHANNELS 3 Zrotation Xrotation Yrotation
                      End Site
                      {
                        OFFSET 2.0404 -0.1441 0.0027
                      }
                    }
                  }
                }
                JOINT LeftHandRing1
                {
                  OFFSET 8.5234 0.597198 -2.0164
                  CHANNELS 3 Zrotation Xrotation Yrotation
                  JOINT LeftHandRing2
                  {
                    OFFSET 3.7188 -0.188293 -0.2328
                    CHANNELS 3 Zrotation Xrotation Yrotation
                    JOINT LeftHandRing3
                    {
                      OFFSET 2.1191 -0.106598 -0.1332
                      CHANNELS 3 Zrotation Xrotation Yrotation
                      End Site
                      {
                        OFFSET 1.8737 -0.2304 -0.0886
                      }
                    }
                  }
                }
                JOINT LeftHandPinky1
                {
                  OFFSET 7.9094 -0.601089 -3.4825
                  CHANNELS 3 Zrotation Xrotation Yrotation
                  JOINT LeftHandPinky2
                  {
                    OFFSET 2.2874 -0.477005 -0.6314
                    CHANNELS 3 Zrotation Xrotation Yrotation
                    JOINT LeftHandPinky3
                    {
                      OFFSET 1.6774 -0.349396 -0.4633
                      CHANNELS 3 Zrotation Xrotation Yrotation
                      End Site
                      {
                        OFFSET 1.4888 -0.4091 -0.3416
                      }
                    }
                  }
                }
                JOINT LeftHandThumb1
                {
                  OFFSET 1.833 -1.3875 1.3896
                  CHANNELS 3 Zrotation Xrotation Yrotation
                  JOINT LeftHandThumb2
                  {
                    OFFSET 3.4129 -1.121 2.5732
                    CHANNELS 3 Zrotation Xrotation Yrotation
                    JOINT LeftHandThumb3
                    {
                      OFFSET 2.2474 -0.804199 1.6192
                      CHANNELS 3 Zrotation Xrotation Yrotation
                      End Site
                      {
                        OFFSET 1.6527 -0.5689 1.1317
                      }
                    }
                  }
                }
              }
            }
          }
        }
        JOINT RightShoulder
        {
          OFFSET -2.2086 21.1115 7.2329
          CHANNELS 3 Zrotation Xrotation Yrotation
          JOINT RightArm
          {
            OFFSET -13.1216 3.0287 -4.9007
            CHANNELS 3 Zrotation Xrotation Yrotation
            JOINT RightForeArm
            {
              OFFSET -27.4081 -0.0973053 -0.2375
              CHANNELS 3 Zrotation Xrotation Yrotation
              JOINT RightHand
              {
                OFFSET -22.8641 0.0664063 -0.1369
                CHANNELS 3 Zrotation Xrotation Yrotation
                JOINT RightHandIndex1
                {
                  OFFSET -8.8614 0.774994 2.4612
                  CHANNELS 3 Zrotation Xrotation Yrotation
                  JOINT RightHandIndex2
                  {
                    OFFSET -3.3146 -0.808304 0.5841
                    CHANNELS 3 Zrotation Xrotation Yrotation
                    JOINT RightHandIndex3
                    {
                      OFFSET -2.2628 -0.552002 0.3989
                      CHANNELS 3 Zrotation Xrotation Yrotation
                      End Site
                      {
                        OFFSET -1.6102 -0.4807 0.2612
                      }
                    }
                  }
                }
                JOINT RightHandMiddle1
                {
                  OFFSET -8.9937 0.894989 0.2143
                  CHANNELS 3 Zrotation Xrotation Yrotation
                  JOINT RightHandMiddle2
                  {
                    OFFSET -4.0984 0.0113983 -0.0242
                    CHANNELS 3 Zrotation Xrotation Yrotation
                    JOINT RightHandMiddle3
                    {
                      OFFSET -2.2716 0.00691223 -0.0138001
                      CHANNELS 3 Zrotation Xrotation Yrotation
                      End Site
                      {
                        OFFSET -2.0404 -0.1441 0.0027
                      }
                    }
                  }
                }
                JOINT RightHandRing1
                {
                  OFFSET -8.5234 0.597198 -2.0164
                  CHANNELS 3 Zrotation Xrotation Yrotation
                  JOINT RightHandRing2
                  {
                    OFFSET -3.7188 -0.188309 -0.2328
                    CHANNELS 3 Zrotation Xrotation Yrotation
                    JOINT RightHandRing3
                    {
                      OFFSET -2.1191 -0.106598 -0.1332
                      CHANNELS 3 Zrotation Xrotation Yrotation
                      End Site
                      {
                        OFFSET -1.8737 -0.2304 -0.0886
                      }
                    }
                  }
                }
                JOINT RightHandPinky1
                {
                  OFFSET -7.9094 -0.601105 -3.4825
                  CHANNELS 3 Zrotation Xrotation Yrotation
                  JOINT RightHandPinky2
                  {
                    OFFSET -2.2874 -0.477005 -0.6314
                    CHANNELS 3 Zrotation Xrotation Yrotation
                    JOINT RightHandPinky3
                    {
                      OFFSET -1.6774 -0.349396 -0.4633
                      CHANNELS 3 Zrotation Xrotation Yrotation
                      End Site
                      {
                        OFFSET -1.4888 -0.4091 -0.3416
                      }
                    }
                  }
                }
                JOINT RightHandThumb1
                {
                  OFFSET -1.833 -1.38751 1.3896
                  CHANNELS 3 Zrotation Xrotation Yrotation
                  JOINT RightHandThumb2
                  {
                    OFFSET -3.41299 -1.12099 2.5732
                    CHANNELS 3 Zrotation Xrotation Yrotation
                    JOINT RightHandThumb3
                    {
                      OFFSET -2.24741 -0.804108 1.6192
                      CHANNELS 3 Zrotation Xrotation Yrotation
                      End Site
                      {
                        OFFSET -1.6527 -0.5689 1.1317
                      }
                    }
                  }
                }
              }
            }
          }
        }
      }
    }
  }
  JOINT RightUpLeg
  {
    OFFSET -9.1966 3.8861 -0.7581
    CHANNELS 3 Zrotation Xrotation Yrotation
    JOINT RightLeg
    {
      OFFSET -0.7359 -41.0265 0
      CHANNELS 3 Zrotation Xrotation Yrotation
      JOINT RightFoot
      {
        OFFSET 0 -40.2855 0
        CHANNELS 3 Zrotation Xrotation Yrotation
        JOINT RightToeBase
        {
          OFFSET 0 -5.6122 11.7359
          CHANNELS 3 Zrotation Xrotation Yrotation
          End Site
          {
            OFFSET 0 0 7.8731
          }
        }
      }
    }
  }
  JOINT LeftUpLeg
  {
    OFFSET 9.1965 3.8864 -0.7581
    CHANNELS 3 Zrotation Xrotation Yrotation
    JOINT LeftLeg
    {
      OFFSET 0.7359 -41.0268 0
      CHANNELS 3 Zrotation Xrotation Yrotation
      JOINT LeftFoot
      {
        OFFSET 0 -40.2855 0
        CHANNELS 3 Zrotation Xrotation Yrotation
        JOINT LeftToeBase
        {
          OFFSET 0 -5.6122 11.7359
          CHANNELS 3 Zrotation Xrotation Yrotation
          End Site
          {
            OFFSET 0 0 7.8731
          }
        }
      }
    }
  }
}
MOTION
Frames:	6
Frame Time:	0.0333333
5.84602e-005 68.8428 3.50346 0 0 -0 0 0 -0 0 0 -0 0 0 -0 0 0 -0 0 0 -0 0 0 -0 0 0 -0 0 0 -0 0 0 -0 0 0 -0 0 0 -0 0 0 -0 0 0 -0 -0.0146107 -8.87603e-005 -2.63497e-007 2.99804e-018 -2.42657e-020 -1.42182e-022 0 0 -0 -0.0187562 -0.001176 5.858e-005 5.06224e-018 3.88251e-019 1.21329e-020 0 0 -0 -0.012269 -0.00324817 0.000675346 -1.74678e-018 3.88251e-019 -0 0 0 -0 0 0 -0 0 0 -0 0 0 -0 0 0 -0 0 0 -0 0 0 -0 0 0 -0 0 0 -0 0 0 -0 0 0 -0 0.0149955 -9.10982e-005 2.64101e-007 -9.69331e-018 1.21329e-020 -4.7394e-023 0 0 -0 0.0189956 -0.00119102 -5.96516e-005 -5.41541e-019 0 2.42657e-020 0 0 -0 0.0122698 -0.00324857 -0.000673756 -2.00796e-019 0 -1.94126e-019 0 0 -0 0 0 -0 0 0 -0 3.39842 1.33031 -0.0637918 -5.65207e-008 0.834868 -0.000436188 -3.39935 -2.16518 -0.0642563 -8.89002e-024 -1.18485e-023 -1.48106e-024 -3.39844 1.35642 0.0640283 -3.18788e-007 0.782166 -0.000588827 3.39931 -2.13858 0.0634662 1.1399e-023 0 -0 
7.94448 8.98959 -43.2628 0 0 -0 0.133565 0.0480353 0.00382516 0.267126 0.0960793 0.00753835 0.267126 0.0960793 0.00753835 0.0126903 0.208385 -1.19577e-005 1.26268e-007 -25.0011 4.78101e-008 -13.8414 3.4749 -29.8491 -33.235 -56.4561 -44.6071 -28.3531 -31.8824 -52.2349 -19.5572 -36.6629 -10.5961 3.28946e-006 -2.09207e-007 8.43705e-007 -1.82499e-007 -3.22784e-007 -2.11489e-007 1.82499e-007 3.22784e-007 2.11489e-007 3.28946e-006 -2.09207e-007 8.43705e-007 -0.0146557 -8.84927e-005 -1.04049e-006 1.9405e-006 -9.37697e-007 5.44582e-007 3.28946e-006 -2.09207e-007 8.43705e-007 -0.018737 -0.00117814 5.43146e-005 1.82502e-007 3.22749e-007 2.1154e-007 3.28946e-006 -2.09207e-007 8.43705e-007 -0.0122728 -0.00325033 0.00067295 1.82508e-007 3.2276e-007 2.11519e-007 3.28946e-006 -2.09207e-007 8.43705e-007 -1.82499e-007 -3.22784e-007 -2.11489e-007 1.82499e-007 3.22784e-007 2.11489e-007 21.1913 8.54705 39.3069 50.2158 -44.4734 51.7498 21.614 -32.8399 12.6106 19.5517 -36.6639 10.5907 -3.01986e-006 2.73197e-007 -5.29981e-007 6.54861e-007 -5.2764e-007 1.27182e-007 5.70443e-007 -7.91293e-007 -3.18209e-006 -3.01986e-006 2.73197e-007 -5.29981e-007 0.0149717 -9.12987e-005 -2.3992e-008 3.18055e-015 2.38542e-015 -1.59028e-015 -3.01986e-006 2.73197e-007 -5.29981e-007 0.0190301 -0.00119479 -5.37147e-005 5.67914e-007 -7.91664e-007 -3.18196e-006 -3.01986e-006 2.73197e-007 -5.29981e-007 0.0122034 -0.00323026 -0.000670801 4.41391e-032 1.59028e-015 -1.59028e-015 -3.01986e-006 2.73197e-007 -5.29981e-007 6.54861e-007 -5.2764e-007 1.27182e-007 5.70443e-007 -7.91293e-007 -3.18209e-006 -173.49 -64.2736 -178.782 -163.935 69.9934 162.519 -6.47948 -0.353503 -10.1852 -6.62086e-032 7.95139e-016 4.77083e-015 4.02453 -52.1973 14.0651 174.908 28.2956 -170.153 3.53841 52.2116 10.2222 0 9.54166e-015 -0 
7.94448 8.98959 -43.2628 0 0 -0 0.133565 0.0480353 0.00382516 0.267126 0.0960793 0.00753835 0.267126 0.0960793 0.00753835 0.0126903 0.208385 -1.19577e-005 0.0702713 -24.4964 0.0593899 -14.1547 3.64603 -29.6844 -33.3292 -56.4531 -44.1352 -29.4644 -30.7931 -53.2926 -20.1963 -36.5278 -11.0466 1.2828e-006 -2.65162e-007 -2.65789e-006 -1.15232e-007 -2.00067e-007 -1.33712e-007 -2.02028e-006 -1.01526e-006 1.80213e-006 1.2828e-006 -2.65162e-007 -2.65789e-006 -0.0145359 -9.09462e-005 -2.7687e-006 -3.22649e-007 -5.60139e-007 -3.74464e-007 1.2828e-006 -2.65162e-007 -2.65789e-006 -0.0187293 -0.00117803 5.88691e-005 -3.22653e-007 -5.60125e-007 -3.74481e-007 1.2828e-006 -2.65162e-007 -2.65789e-006 -0.0123591 -0.00327117 0.000681904 -3.22663e-007 -5.60144e-007 -3.74444e-007 1.2828e-006 -2.65162e-007 -2.65789e-006 -1.15232e-007 -2.00067e-007 -1.33712e-007 -2.02028e-006 -1.01526e-006 1.80213e-006 21.1913 8.54705 39.3069 50.2158 -44.4734 51.7498 21.614 -32.8399 12.6106 19.5517 -36.6639 10.5907 -3.01986e-006 2.73197e-007 -5.29981e-007 6.54861e-007 -5.2764e-007 1.27182e-007 5.70443e-007 -7.91293e-007 -3.18209e-006 -3.01986e-006 2.73197e-007 -5.29981e-007 0.0149717 -9.12987e-005 -2.3992e-008 3.18055e-015 2.38542e-015 -1.59028e-015 -3.01986e-006 2.73197e-007 -5.29981e-007 0.0190301 -0.00119479 -5.37147e-005 5.67914e-007 -7.91664e-007 -3.18196e-006 -3.01986e-006 2.73197e-007 -5.29981e-007 0.0122034 -0.00323026 -0.000670801 4.41391e-032 1.59028e-015 -1.59028e-015 -3.01986e-006 2.73197e-007 -5.29981e-007 6.54861e-007 -5.2764e-007 1.27182e-007 5.70443e-007 -7.91293e-007 -3.18209e-006 -173.49 -64.2736 -178.782 -163.935 69.9934 162.519 -6.47948 -0.353503 -10.1852 -6.62086e-032 7.95139e-016 4.77083e-015 4.02453 -52.1973 14.0651 174.908 28.2956 -170.153 3.53841 52.2116 10.2222 0 9.54166e-015 -0 
7.94448 8.98959 -43.2628 0 0 -0 0.133565 0.0480353 0.00382516 0.267126 0.0960793 0.00753835 0.267126 0.0960793 0.00753835 0.0126903 0.208385 -1.19577e-005 0.139777 -23.991 0.117938 -14.4689 3.81637 -29.5186 -33.4236 -56.4506 -43.6626 -30.5475 -29.679 -54.321 -20.8338 -36.3886 -11.4949 1.56835e-006 9.37073e-007 4.35793e-006 -5.20877e-007 -8.87687e-007 -6.05155e-007 7.15842e-007 1.21995e-006 8.31666e-007 1.56835e-006 9.37073e-007 4.35793e-006 -0.0145678 -8.70965e-005 -5.07413e-006 7.15842e-007 1.21984e-006 8.3182e-007 1.56835e-006 9.37073e-007 4.35793e-006 -0.0187518 -0.00117792 6.11329e-005 7.15851e-007 1.21981e-006 8.31858e-007 1.56835e-006 9.37073e-007 4.35793e-006 -0.012212 -0.0032306 0.000677543 2.33107e-006 1.70618e-006 -1.2654e-006 1.56835e-006 9.37073e-007 4.35793e-006 -5.20877e-007 -8.87687e-007 -6.05155e-007 7.15842e-007 1.21995e-006 8.31666e-007 21.1913 8.54705 39.3069 50.2158 -44.4734 51.7498 21.614 -32.8399 12.6106 19.5517 -36.6638 10.5907 -1.2253e-006 1.31893e-006 3.05491e-006 7.95139e-016 3.97569e-016 3.18055e-015 -8.44187e-008 -2.63654e-007 -3.30928e-006 -1.2253e-006 1.31893e-006 3.05491e-006 0.0149674 -8.92551e-005 4.57939e-006 -6.5487e-007 5.27623e-007 -1.27251e-007 -1.2253e-006 1.31893e-006 3.05491e-006 0.0190298 -0.00119341 -6.25165e-005 -6.54874e-007 5.27619e-007 -1.27263e-007 -1.2253e-006 1.31893e-006 3.05491e-006 0.0122059 -0.00323286 -0.00067464 -6.54875e-007 5.27624e-007 -1.27219e-007 -1.2253e-006 1.31893e-006 3.05491e-006 7.95139e-016 3.97569e-016 3.18055e-015 -8.44187e-008 -2.63654e-007 -3.30928e-006 -173.49 -64.2736 -178.782 -163.935 69.9933 162.519 -6.47947 -0.353537 -10.1852 -7.95139e-016 1.59028e-015 -0 4.02453 -52.1973 14.0651 174.908 28.2956 -170.153 3.53841 52.2116 10.2222 6.04095e-007 -7.28844e-008 -1.91249e-006 
7.94448 8.98959 -43.2628 0 0 -0 0.133565 0.0480353 0.00382516 0.267126 0.0960793 0.00753835 0.267126 0.0960793 0.00753835 0.0126903 0.208385 -1.19577e-005 0.20853 -23.4848 0.17566 -14.7838 3.9859 -29.3517 -33.5182 -56.4485 -43.1894 -31.6028 -28.5408 -55.3207 -21.4695 -36.2451 -11.9412 -4.9374e-007 -8.25881e-007 -5.74286e-007 -1.6458e-007 -2.75294e-007 -1.91429e-007 -3.99694e-007 -6.6857e-007 -4.64898e-007 -4.9374e-007 -8.25881e-007 -5.74286e-007 -0.0146598 -8.93577e-005 -2.73896e-006 -3.99694e-007 -6.68511e-007 -4.64983e-007 -4.9374e-007 -8.25881e-007 -5.74286e-007 -0.0187012 -0.00117591 5.73049e-005 -3.99699e-007 -6.68494e-007 -4.65003e-007 -4.9374e-007 -8.25881e-007 -5.74286e-007 -0.0122728 -0.00324846 0.000671926 -1.92101e-006 -1.16422e-006 1.56655e-006 -4.9374e-007 -8.25881e-007 -5.74286e-007 -1.6458e-007 -2.75294e-007 -1.91429e-007 -3.99694e-007 -6.6857e-007 -4.64898e-007 21.1913 8.54705 39.3069 50.2158 -44.4734 51.7498 21.614 -32.8399 12.6106 19.5517 -36.6638 10.5907 6.7816e-007 -7.53802e-007 -9.1184e-007 -2.38542e-015 1.59028e-015 -0 -1.59028e-015 -4.96962e-015 4.77083e-015 6.7816e-007 -7.53802e-007 -9.1184e-007 0.0149646 -9.15705e-005 3.11795e-006 2.38542e-015 -3.77691e-015 1.59028e-015 6.7816e-007 -7.53802e-007 -9.1184e-007 0.0190312 -0.00119348 -5.35637e-005 -1.59028e-015 -3.97569e-015 3.18055e-015 6.7816e-007 -7.53802e-007 -9.1184e-007 0.0121881 -0.00322603 -0.000669208 7.95139e-016 7.95139e-015 -3.18055e-015 6.7816e-007 -7.53802e-007 -9.1184e-007 -2.38542e-015 1.59028e-015 -0 -1.59028e-015 -4.96962e-015 4.77083e-015 -173.49 -64.2736 -178.782 -163.935 69.9934 162.519 -6.47948 -0.353503 -10.1852 -6.62086e-032 7.95139e-016 4.77083e-015 4.02453 -52.1973 14.0651 174.908 28.2956 -170.153 3.53841 52.2116 10.2222 0 9.54166e-015 -0 
7.94448 8.98959 -43.2628 0 0 -0 0.133565 0.0480353 0.00382516 0.267126 0.0960793 0.00753835 0.267126 0.0960793 0.00753835 0.0126903 0.208385 -1.19577e-005 0.276548 -22.9781 0.232568 -15.0995 4.15464 -29.1838 -33.613 -56.4468 -42.7155 -32.6308 -27.3796 -56.2922 -22.1036 -36.0975 -12.3851 -1.62339e-006 -8.2481e-007 1.73815e-006 1.89936e-007 3.11816e-007 2.21159e-007 -9.49681e-008 -1.55908e-007 -1.1058e-007 -1.62339e-006 -8.2481e-007 1.73815e-006 -0.0146647 -8.60543e-005 -6.20303e-006 -9.49679e-008 -1.55894e-007 -1.10599e-007 -1.62339e-006 -8.2481e-007 1.73815e-006 -0.0187837 -0.00118006 5.55613e-005 -9.4969e-008 -1.5589e-007 -1.10604e-007 -1.62339e-006 -8.2481e-007 1.73815e-006 -0.0123163 -0.00325538 0.000678935 -9.49719e-008 -1.55895e-007 -1.10594e-007 -1.62339e-006 -8.2481e-007 1.73815e-006 1.89936e-007 3.11816e-007 2.21159e-007 -9.49681e-008 -1.55908e-007 -1.1058e-007 21.1913 8.54705 39.3069 50.2158 -44.4734 51.7498 21.614 -32.8399 12.6106 19.5517 -36.6638 10.5907 -6.54861e-007 5.2764e-007 -1.27182e-007 -4.07514e-006 -1.03652e-006 -6.78416e-007 -1.30972e-006 1.05528e-006 -2.54364e-007 -6.54861e-007 5.2764e-007 -1.27182e-007 0.0149603 -9.0244e-005 2.3307e-006 -1.30974e-006 1.05525e-006 -2.54501e-007 -6.54861e-007 5.2764e-007 -1.27182e-007 0.0190248 -0.00119406 -4.92611e-005 -6.29961e-007 3.0118e-007 -1.16625e-006 -6.54861e-007 5.2764e-007 -1.27182e-007 0.0122837 -0.00325235 -0.000676871 -1.30975e-006 1.05525e-006 -2.54439e-007 -6.54861e-007 5.2764e-007 -1.27182e-007 -4.07514e-006 -1.03652e-006 -6.78416e-007 -1.30972e-006 1.05528e-006 -2.54364e-007 -173.49 -64.2736 -178.782 -163.935 69.9934 162.519 -6.47947 -0.353493 -10.1852 -8.44721e-007 -1.03725e-007 5.24736e-008 4.02463 -52.1974 14.0651 174.908 28.2956 -170.153 3.53844 52.2118 10.2222 4.76113e-008 1.65618e-006 4.77708e-008 
